<svg width="22" height="23" viewBox="0 0 22 23" fill="none" xmlns="http://www.w3.org/2000/svg">
<path d="M19.25 11.0417C19.2532 12.2515 18.9705 13.4451 18.425 14.525C17.7782 15.8191 16.7839 16.9076 15.5535 17.6685C14.3231 18.4294 12.9051 18.8328 11.4583 18.8333C10.2485 18.8365 9.05494 18.5538 7.975 18.0083L2.75 19.75L4.49167 14.525C3.94619 13.4451 3.66351 12.2515 3.66667 11.0417C3.66723 9.59494 4.07056 8.17694 4.83149 6.9465C5.59242 5.71606 6.6809 4.72177 7.975 4.075C9.05494 3.52952 10.2485 3.24684 11.4583 3.25H11.9167C13.8273 3.3554 15.632 4.16186 16.985 5.51495C18.3381 6.86804 19.1446 8.67268 19.25 10.5833V11.0417Z" stroke="black" stroke-width="2" stroke-linecap="round" stroke-linejoin="round"/>
</svg>
