<svg width="29" height="29" viewBox="0 0 29 29" fill="none" xmlns="http://www.w3.org/2000/svg">
<path d="M7 9H8.66667H22" stroke="black" stroke-width="2" stroke-linecap="round" stroke-linejoin="round"/>
<path d="M10.7857 9.4V7.7C10.7857 7.24913 10.9814 6.81673 11.3297 6.49792C11.6779 6.17911 12.1503 6 12.6429 6H16.3571C16.8497 6 17.3221 6.17911 17.6703 6.49792C18.0186 6.81673 18.2143 7.24913 18.2143 7.7V9.4M21 9.4V21.3C21 21.7509 20.8043 22.1833 20.4561 22.5021C20.1078 22.8209 19.6354 23 19.1429 23H9.85714C9.3646 23 8.89223 22.8209 8.54394 22.5021C8.19566 22.1833 8 21.7509 8 21.3V9.4H21Z" stroke="black" stroke-width="2" stroke-linecap="round" stroke-linejoin="round"/>
<path d="M13 13V18" stroke="black" stroke-width="2" stroke-linecap="round" stroke-linejoin="round"/>
<path d="M16 13V18" stroke="black" stroke-width="2" stroke-linecap="round" stroke-linejoin="round"/>
</svg>
