<svg width="15" height="14" viewBox="0 0 15 14" fill="none" xmlns="http://www.w3.org/2000/svg">
<path d="M12.75 9.33333V4.66667C12.7498 4.46208 12.6958 4.26114 12.5934 4.08401C12.491 3.90688 12.3438 3.75979 12.1667 3.6575L8.08333 1.32417C7.90598 1.22177 7.70479 1.16786 7.5 1.16786C7.29521 1.16786 7.09402 1.22177 6.91667 1.32417L2.83333 3.6575C2.65615 3.75979 2.50899 3.90688 2.4066 4.08401C2.30422 4.26114 2.25021 4.46208 2.25 4.66667V9.33333C2.25021 9.53792 2.30422 9.73886 2.4066 9.91599C2.50899 10.0931 2.65615 10.2402 2.83333 10.3425L6.91667 12.6758C7.09402 12.7782 7.29521 12.8321 7.5 12.8321C7.70479 12.8321 7.90598 12.7782 8.08333 12.6758L12.1667 10.3425C12.3438 10.2402 12.491 10.0931 12.5934 9.91599C12.6958 9.73886 12.7498 9.53792 12.75 9.33333Z" stroke="#731495" stroke-width="1.5" stroke-linecap="round" stroke-linejoin="round"/>
<path d="M4.875 2.45583L7.5 3.97249L10.125 2.45583" stroke="#731495" stroke-width="1.5" stroke-linecap="round" stroke-linejoin="round"/>
<path d="M4.875 11.5442V8.51667L2.25 7" stroke="#731495" stroke-width="1.5" stroke-linecap="round" stroke-linejoin="round"/>
<path d="M12.75 7L10.125 8.51667V11.5442" stroke="#731495" stroke-width="1.5" stroke-linecap="round" stroke-linejoin="round"/>
<path d="M2.40747 4.06L7.49997 7.00583L12.5925 4.06" stroke="#731495" stroke-width="1.5" stroke-linecap="round" stroke-linejoin="round"/>
<path d="M7.5 12.88V7" stroke="#731495" stroke-width="1.5" stroke-linecap="round" stroke-linejoin="round"/>
</svg>
