<svg width="29" height="29" viewBox="0 0 29 29" fill="none" xmlns="http://www.w3.org/2000/svg">
<path d="M14.4998 15.7084C15.1672 15.7084 15.7082 15.1674 15.7082 14.5001C15.7082 13.8327 15.1672 13.2917 14.4998 13.2917C13.8325 13.2917 13.2915 13.8327 13.2915 14.5001C13.2915 15.1674 13.8325 15.7084 14.4998 15.7084Z" stroke="black" stroke-width="2" stroke-linecap="round" stroke-linejoin="round"/>
<path d="M14.4998 7.24992C15.1672 7.24992 15.7082 6.70893 15.7082 6.04159C15.7082 5.37424 15.1672 4.83325 14.4998 4.83325C13.8325 4.83325 13.2915 5.37424 13.2915 6.04159C13.2915 6.70893 13.8325 7.24992 14.4998 7.24992Z" stroke="black" stroke-width="2" stroke-linecap="round" stroke-linejoin="round"/>
<path d="M14.4998 24.1667C15.1672 24.1667 15.7082 23.6257 15.7082 22.9583C15.7082 22.291 15.1672 21.75 14.4998 21.75C13.8325 21.75 13.2915 22.291 13.2915 22.9583C13.2915 23.6257 13.8325 24.1667 14.4998 24.1667Z" stroke="black" stroke-width="2" stroke-linecap="round" stroke-linejoin="round"/>
</svg>
