<svg width="25" height="24" viewBox="0 0 25 24" fill="none" xmlns="http://www.w3.org/2000/svg">
<path d="M14.25 2H6.25C5.71957 2 5.21086 2.21071 4.83579 2.58579C4.46071 2.96086 4.25 3.46957 4.25 4V20C4.25 20.5304 4.46071 21.0391 4.83579 21.4142C5.21086 21.7893 5.71957 22 6.25 22H18.25C18.7804 22 19.2891 21.7893 19.6642 21.4142C20.0393 21.0391 20.25 20.5304 20.25 20V8L14.25 2Z" stroke="white" stroke-width="2" stroke-linecap="round" stroke-linejoin="round"/>
<path d="M14.25 2V8H20.25" stroke="white" stroke-width="2" stroke-linecap="round" stroke-linejoin="round"/>
<path d="M16.25 13H8.25" stroke="white" stroke-width="2" stroke-linecap="round" stroke-linejoin="round"/>
<path d="M16.25 17H8.25" stroke="white" stroke-width="2" stroke-linecap="round" stroke-linejoin="round"/>
<path d="M10.25 9H9.25H8.25" stroke="white" stroke-width="2" stroke-linecap="round" stroke-linejoin="round"/>
</svg>
