<svg width="28" height="28" viewBox="0 0 28 28" fill="none" xmlns="http://www.w3.org/2000/svg">
<path d="M16.4734 16.4733C16.153 16.8172 15.7666 17.093 15.3373 17.2843C14.9079 17.4756 14.4445 17.5785 13.9745 17.5867C13.5046 17.595 13.0378 17.5086 12.602 17.3326C12.1661 17.1565 11.7703 16.8945 11.4379 16.5622C11.1055 16.2298 10.8435 15.8339 10.6675 15.3981C10.4915 14.9623 10.405 14.4955 10.4133 14.0255C10.4216 13.5556 10.5245 13.0921 10.7158 12.6628C10.9071 12.2335 11.1829 11.8471 11.5267 11.5267M20.9301 20.93C18.9358 22.4502 16.5074 23.2923 14.0001 23.3333C5.83342 23.3333 1.16675 14 1.16675 14C2.61795 11.2955 4.63074 8.9327 7.07008 7.06999L20.9301 20.93ZM11.5501 4.94666C12.3531 4.75868 13.1753 4.66472 14.0001 4.66666C22.1667 4.66666 26.8334 14 26.8334 14C26.1252 15.3249 25.2806 16.5722 24.3134 17.7217L11.5501 4.94666Z" stroke="white" stroke-width="2" stroke-linecap="round" stroke-linejoin="round"/>
<path d="M4 3L25 25" stroke="white" stroke-width="2" stroke-linecap="round" stroke-linejoin="round"/>
</svg>
