<svg width="58" height="58" viewBox="0 0 58 58" fill="none" xmlns="http://www.w3.org/2000/svg">
<path d="M45.9167 7.25H12.0833C9.41396 7.25 7.25 9.41396 7.25 12.0833V45.9167C7.25 48.586 9.41396 50.75 12.0833 50.75H45.9167C48.586 50.75 50.75 48.586 50.75 45.9167V12.0833C50.75 9.41396 48.586 7.25 45.9167 7.25Z" stroke="#D0D0D0" stroke-width="3" stroke-linecap="round" stroke-linejoin="round"/>
<path d="M20.5415 24.1666C22.5435 24.1666 24.1665 22.5437 24.1665 20.5416C24.1665 18.5396 22.5435 16.9166 20.5415 16.9166C18.5395 16.9166 16.9165 18.5396 16.9165 20.5416C16.9165 22.5437 18.5395 24.1666 20.5415 24.1666Z" stroke="#D0D0D0" stroke-width="3" stroke-linecap="round" stroke-linejoin="round"/>
<path d="M50.7502 36.25L38.6668 24.1666L12.0835 50.75" stroke="#D0D0D0" stroke-width="3" stroke-linecap="round" stroke-linejoin="round"/>
</svg>
