<svg width="24" height="25" viewBox="0 0 24 25" fill="none" xmlns="http://www.w3.org/2000/svg">
<g clip-path="url(#clip0_1141_187)">
<path d="M22 12.5H2" stroke="white" stroke-width="2" stroke-linecap="round" stroke-linejoin="round"/>
<path d="M5.45 5.61L2 12.5V18.5C2 19.0304 2.21071 19.5391 2.58579 19.9142C2.96086 20.2893 3.46957 20.5 4 20.5H20C20.5304 20.5 21.0391 20.2893 21.4142 19.9142C21.7893 19.5391 22 19.0304 22 18.5V12.5L18.55 5.61C18.3844 5.27679 18.1292 4.99637 17.813 4.80028C17.4967 4.60419 17.1321 4.5002 16.76 4.5H7.24C6.86792 4.5002 6.50326 4.60419 6.18704 4.80028C5.87083 4.99637 5.61558 5.27679 5.45 5.61V5.61Z" stroke="white" stroke-width="2" stroke-linecap="round" stroke-linejoin="round"/>
<path d="M6 16.5H6.01" stroke="white" stroke-width="2" stroke-linecap="round" stroke-linejoin="round"/>
<path d="M10 16.5H10.01" stroke="white" stroke-width="2" stroke-linecap="round" stroke-linejoin="round"/>
<path d="M17.5 12.5417V22.4583" stroke="#FF3F18" stroke-width="3" stroke-linecap="round" stroke-linejoin="round"/>
<path d="M12.542 17.5H22.4587" stroke="#FF3F18" stroke-width="3" stroke-linecap="round" stroke-linejoin="round"/>
</g>
<defs>
<clipPath id="clip0_1141_187">
<rect width="24" height="24" fill="white" transform="translate(0 0.5)"/>
</clipPath>
</defs>
</svg>
