<svg width="22" height="22" viewBox="0 0 22 22" fill="none" xmlns="http://www.w3.org/2000/svg">
<path d="M18.3332 11V20.1667H3.6665V11" stroke="#1E1E20" stroke-width="2" stroke-linecap="round" stroke-linejoin="round"/>
<path d="M20.1668 6.41666H1.8335V11H20.1668V6.41666Z" stroke="#1E1E20" stroke-width="2" stroke-linecap="round" stroke-linejoin="round"/>
<path d="M11 20.1667V6.41666" stroke="#1E1E20" stroke-width="2" stroke-linecap="round" stroke-linejoin="round"/>
<path d="M11.0002 6.41668H6.87516C6.26737 6.41668 5.68448 6.17523 5.25471 5.74546C4.82494 5.31569 4.5835 4.7328 4.5835 4.12501C4.5835 3.51722 4.82494 2.93433 5.25471 2.50456C5.68448 2.07479 6.26737 1.83334 6.87516 1.83334C10.0835 1.83334 11.0002 6.41668 11.0002 6.41668Z" stroke="#1E1E20" stroke-width="2" stroke-linecap="round" stroke-linejoin="round"/>
<path d="M11 6.41668H15.125C15.7328 6.41668 16.3157 6.17523 16.7455 5.74546C17.1752 5.31569 17.4167 4.7328 17.4167 4.12501C17.4167 3.51722 17.1752 2.93433 16.7455 2.50456C16.3157 2.07479 15.7328 1.83334 15.125 1.83334C11.9167 1.83334 11 6.41668 11 6.41668Z" stroke="#1E1E20" stroke-width="2" stroke-linecap="round" stroke-linejoin="round"/>
</svg>
