<svg width="70" height="70" viewBox="0 0 70 70" fill="none" xmlns="http://www.w3.org/2000/svg">
<path d="M40.8332 5.83334H17.4998C15.9527 5.83334 14.469 6.44792 13.375 7.54188C12.2811 8.63584 11.6665 10.1196 11.6665 11.6667V58.3333C11.6665 59.8804 12.2811 61.3642 13.375 62.4581C14.469 63.5521 15.9527 64.1667 17.4998 64.1667H52.4998C54.0469 64.1667 55.5307 63.5521 56.6246 62.4581C57.7186 61.3642 58.3332 59.8804 58.3332 58.3333V23.3333L40.8332 5.83334Z" stroke="white" stroke-width="5" stroke-linecap="round" stroke-linejoin="round"/>
<path d="M40.8335 5.83334V23.3333H58.3335" stroke="white" stroke-width="5" stroke-linecap="round" stroke-linejoin="round"/>
<path d="M46.6668 37.9167H23.3335" stroke="white" stroke-width="5" stroke-linecap="round" stroke-linejoin="round"/>
<path d="M46.6668 49.5833H23.3335" stroke="white" stroke-width="5" stroke-linecap="round" stroke-linejoin="round"/>
<path d="M29.1668 26.25H26.2502H23.3335" stroke="white" stroke-width="5" stroke-linecap="round" stroke-linejoin="round"/>
</svg>
